<mxfile host="app.diagrams.net" modified="2023-05-22T19:57:08.584Z" agent="Mozilla/5.0 (Windows NT 10.0; Win64; x64) AppleWebKit/537.36 (KHTML, like Gecko) Chrome/112.0.0.0 Safari/537.36 OPR/98.0.0.0" etag="_y_WfFKL-aZA0-A93Df4" version="21.2.9" type="device">
  <diagram name="Strona-1" id="IJmL8521KB8niMkWwbc4">
    <mxGraphModel dx="3048" dy="758" grid="1" gridSize="10" guides="1" tooltips="1" connect="1" arrows="1" fold="1" page="1" pageScale="1" pageWidth="1654" pageHeight="2336" math="0" shadow="0">
      <root>
        <mxCell id="0" />
        <mxCell id="1" parent="0" />
        <mxCell id="CE3I49nO1LeiMkkwxZkM-143" value="" style="verticalLabelPosition=bottom;verticalAlign=top;html=1;shape=mxgraph.basic.rect;fillColor2=none;strokeWidth=1;size=20;indent=5;" vertex="1" parent="1">
          <mxGeometry x="-45" y="1330" width="970" height="750" as="geometry" />
        </mxCell>
        <mxCell id="CE3I49nO1LeiMkkwxZkM-32" value="" style="verticalLabelPosition=bottom;verticalAlign=top;html=1;shape=mxgraph.basic.rect;fillColor2=none;strokeWidth=1;size=20;indent=5;" vertex="1" parent="1">
          <mxGeometry x="-50" y="410" width="970" height="750" as="geometry" />
        </mxCell>
        <mxCell id="CE3I49nO1LeiMkkwxZkM-1" value="GUI" style="shape=umlLifeline;perimeter=lifelinePerimeter;whiteSpace=wrap;html=1;container=1;dropTarget=0;collapsible=0;recursiveResize=0;outlineConnect=0;portConstraint=eastwest;newEdgeStyle={&quot;edgeStyle&quot;:&quot;elbowEdgeStyle&quot;,&quot;elbow&quot;:&quot;vertical&quot;,&quot;curved&quot;:0,&quot;rounded&quot;:0};participant=umlControl;" vertex="1" parent="1">
          <mxGeometry x="200" y="480" width="40" height="620" as="geometry" />
        </mxCell>
        <mxCell id="CE3I49nO1LeiMkkwxZkM-7" value="" style="html=1;points=[];perimeter=orthogonalPerimeter;outlineConnect=0;targetShapes=umlLifeline;portConstraint=eastwest;newEdgeStyle={&quot;edgeStyle&quot;:&quot;elbowEdgeStyle&quot;,&quot;elbow&quot;:&quot;vertical&quot;,&quot;curved&quot;:0,&quot;rounded&quot;:0};" vertex="1" parent="CE3I49nO1LeiMkkwxZkM-1">
          <mxGeometry x="15" y="90" width="10" height="200" as="geometry" />
        </mxCell>
        <mxCell id="CE3I49nO1LeiMkkwxZkM-3" value="BD" style="shape=umlLifeline;perimeter=lifelinePerimeter;whiteSpace=wrap;html=1;container=1;dropTarget=0;collapsible=0;recursiveResize=0;outlineConnect=0;portConstraint=eastwest;newEdgeStyle={&quot;edgeStyle&quot;:&quot;elbowEdgeStyle&quot;,&quot;elbow&quot;:&quot;vertical&quot;,&quot;curved&quot;:0,&quot;rounded&quot;:0};participant=umlBoundary;" vertex="1" parent="1">
          <mxGeometry x="640" y="480" width="50" height="620" as="geometry" />
        </mxCell>
        <mxCell id="CE3I49nO1LeiMkkwxZkM-13" value="" style="html=1;points=[];perimeter=orthogonalPerimeter;outlineConnect=0;targetShapes=umlLifeline;portConstraint=eastwest;newEdgeStyle={&quot;edgeStyle&quot;:&quot;elbowEdgeStyle&quot;,&quot;elbow&quot;:&quot;vertical&quot;,&quot;curved&quot;:0,&quot;rounded&quot;:0};" vertex="1" parent="CE3I49nO1LeiMkkwxZkM-3">
          <mxGeometry x="20" y="110" width="10" height="80" as="geometry" />
        </mxCell>
        <mxCell id="CE3I49nO1LeiMkkwxZkM-4" value="" style="shape=umlLifeline;perimeter=lifelinePerimeter;whiteSpace=wrap;html=1;container=1;dropTarget=0;collapsible=0;recursiveResize=0;outlineConnect=0;portConstraint=eastwest;newEdgeStyle={&quot;edgeStyle&quot;:&quot;elbowEdgeStyle&quot;,&quot;elbow&quot;:&quot;vertical&quot;,&quot;curved&quot;:0,&quot;rounded&quot;:0};participant=umlActor;" vertex="1" parent="1">
          <mxGeometry x="50" y="480" width="20" height="620" as="geometry" />
        </mxCell>
        <mxCell id="CE3I49nO1LeiMkkwxZkM-5" value="" style="shape=umlLifeline;perimeter=lifelinePerimeter;whiteSpace=wrap;html=1;container=1;dropTarget=0;collapsible=0;recursiveResize=0;outlineConnect=0;portConstraint=eastwest;newEdgeStyle={&quot;edgeStyle&quot;:&quot;elbowEdgeStyle&quot;,&quot;elbow&quot;:&quot;vertical&quot;,&quot;curved&quot;:0,&quot;rounded&quot;:0};participant=umlActor;" vertex="1" parent="1">
          <mxGeometry x="780" y="480" width="20" height="620" as="geometry" />
        </mxCell>
        <mxCell id="CE3I49nO1LeiMkkwxZkM-6" value="System" style="shape=umlLifeline;perimeter=lifelinePerimeter;whiteSpace=wrap;html=1;container=1;dropTarget=0;collapsible=0;recursiveResize=0;outlineConnect=0;portConstraint=eastwest;newEdgeStyle={&quot;edgeStyle&quot;:&quot;elbowEdgeStyle&quot;,&quot;elbow&quot;:&quot;vertical&quot;,&quot;curved&quot;:0,&quot;rounded&quot;:0};participant=umlControl;" vertex="1" parent="1">
          <mxGeometry x="400" y="480" width="40" height="620" as="geometry" />
        </mxCell>
        <mxCell id="CE3I49nO1LeiMkkwxZkM-10" value="" style="html=1;points=[];perimeter=orthogonalPerimeter;outlineConnect=0;targetShapes=umlLifeline;portConstraint=eastwest;newEdgeStyle={&quot;edgeStyle&quot;:&quot;elbowEdgeStyle&quot;,&quot;elbow&quot;:&quot;vertical&quot;,&quot;curved&quot;:0,&quot;rounded&quot;:0};" vertex="1" parent="CE3I49nO1LeiMkkwxZkM-6">
          <mxGeometry x="15" y="100" width="10" height="140" as="geometry" />
        </mxCell>
        <mxCell id="CE3I49nO1LeiMkkwxZkM-8" value="Naciska guzik &quot;Umów wizytę&quot;" style="html=1;verticalAlign=bottom;endArrow=block;edgeStyle=elbowEdgeStyle;elbow=vertical;curved=0;rounded=0;" edge="1" target="CE3I49nO1LeiMkkwxZkM-7" parent="1" source="CE3I49nO1LeiMkkwxZkM-4">
          <mxGeometry x="0.0354" y="10" relative="1" as="geometry">
            <mxPoint x="145" y="570" as="sourcePoint" />
            <Array as="points">
              <mxPoint x="150" y="570" />
            </Array>
            <mxPoint as="offset" />
          </mxGeometry>
        </mxCell>
        <mxCell id="CE3I49nO1LeiMkkwxZkM-9" value="Wizyta została umówiona" style="html=1;verticalAlign=bottom;endArrow=open;dashed=1;endSize=8;edgeStyle=elbowEdgeStyle;elbow=vertical;curved=0;rounded=0;" edge="1" source="CE3I49nO1LeiMkkwxZkM-7" parent="1" target="CE3I49nO1LeiMkkwxZkM-4">
          <mxGeometry relative="1" as="geometry">
            <mxPoint x="145" y="645" as="targetPoint" />
            <Array as="points">
              <mxPoint x="160" y="770" />
              <mxPoint x="170" y="770" />
              <mxPoint x="143" y="650" />
            </Array>
          </mxGeometry>
        </mxCell>
        <mxCell id="CE3I49nO1LeiMkkwxZkM-11" value="Wyświetla formularz do umówienia wizyt" style="html=1;verticalAlign=bottom;endArrow=block;edgeStyle=elbowEdgeStyle;elbow=vertical;curved=0;rounded=0;" edge="1" target="CE3I49nO1LeiMkkwxZkM-10" parent="1">
          <mxGeometry relative="1" as="geometry">
            <mxPoint x="230" y="580" as="sourcePoint" />
            <Array as="points">
              <mxPoint x="328" y="580" />
            </Array>
          </mxGeometry>
        </mxCell>
        <mxCell id="CE3I49nO1LeiMkkwxZkM-12" value="Wyświetla szczegóły o wizycie" style="html=1;verticalAlign=bottom;endArrow=open;dashed=1;endSize=8;edgeStyle=elbowEdgeStyle;elbow=vertical;curved=0;rounded=0;" edge="1" parent="1" target="CE3I49nO1LeiMkkwxZkM-1">
          <mxGeometry relative="1" as="geometry">
            <mxPoint x="345" y="655" as="targetPoint" />
            <mxPoint x="420" y="730" as="sourcePoint" />
            <Array as="points">
              <mxPoint x="340" y="740" />
              <mxPoint x="350" y="720" />
              <mxPoint x="320" y="660" />
            </Array>
          </mxGeometry>
        </mxCell>
        <mxCell id="CE3I49nO1LeiMkkwxZkM-15" value="Zwraca dostępne daty oraz lekarzy" style="html=1;verticalAlign=bottom;endArrow=open;dashed=1;endSize=8;edgeStyle=elbowEdgeStyle;elbow=vertical;curved=0;rounded=0;" edge="1" source="CE3I49nO1LeiMkkwxZkM-13" parent="1" target="CE3I49nO1LeiMkkwxZkM-6">
          <mxGeometry relative="1" as="geometry">
            <mxPoint x="460" y="655" as="targetPoint" />
            <Array as="points">
              <mxPoint x="490" y="670" />
              <mxPoint x="470" y="660" />
            </Array>
          </mxGeometry>
        </mxCell>
        <mxCell id="CE3I49nO1LeiMkkwxZkM-14" value="Wysyła żądanie o dostępnych &lt;br&gt;lekarzach i datach" style="html=1;verticalAlign=bottom;endArrow=block;edgeStyle=elbowEdgeStyle;elbow=vertical;curved=0;rounded=0;" edge="1" target="CE3I49nO1LeiMkkwxZkM-13" parent="1" source="CE3I49nO1LeiMkkwxZkM-6">
          <mxGeometry relative="1" as="geometry">
            <mxPoint x="460" y="580" as="sourcePoint" />
            <Array as="points">
              <mxPoint x="480" y="590" />
            </Array>
          </mxGeometry>
        </mxCell>
        <mxCell id="CE3I49nO1LeiMkkwxZkM-16" value="Wybiera datę oraz lekarza" style="html=1;verticalAlign=bottom;endArrow=block;edgeStyle=elbowEdgeStyle;elbow=vertical;curved=0;rounded=0;" edge="1" parent="1" target="CE3I49nO1LeiMkkwxZkM-6">
          <mxGeometry width="80" relative="1" as="geometry">
            <mxPoint x="60" y="710" as="sourcePoint" />
            <mxPoint x="140" y="710" as="targetPoint" />
            <Array as="points">
              <mxPoint x="140" y="700" />
            </Array>
          </mxGeometry>
        </mxCell>
        <mxCell id="CE3I49nO1LeiMkkwxZkM-17" value="Potwierdza wizytę" style="html=1;verticalAlign=bottom;endArrow=block;edgeStyle=elbowEdgeStyle;elbow=vertical;curved=0;rounded=0;" edge="1" parent="1" source="CE3I49nO1LeiMkkwxZkM-5">
          <mxGeometry width="80" relative="1" as="geometry">
            <mxPoint x="550" y="710" as="sourcePoint" />
            <mxPoint x="420" y="710" as="targetPoint" />
            <Array as="points">
              <mxPoint x="470" y="710" />
            </Array>
          </mxGeometry>
        </mxCell>
        <mxCell id="CE3I49nO1LeiMkkwxZkM-18" value="opt" style="shape=umlFrame;whiteSpace=wrap;html=1;pointerEvents=0;" vertex="1" parent="1">
          <mxGeometry x="-20" y="780" width="860" height="320" as="geometry" />
        </mxCell>
        <mxCell id="CE3I49nO1LeiMkkwxZkM-22" value="" style="html=1;points=[];perimeter=orthogonalPerimeter;outlineConnect=0;targetShapes=umlLifeline;portConstraint=eastwest;newEdgeStyle={&quot;edgeStyle&quot;:&quot;elbowEdgeStyle&quot;,&quot;elbow&quot;:&quot;vertical&quot;,&quot;curved&quot;:0,&quot;rounded&quot;:0};" vertex="1" parent="1">
          <mxGeometry x="660" y="850" width="10" height="80" as="geometry" />
        </mxCell>
        <mxCell id="CE3I49nO1LeiMkkwxZkM-23" value="" style="html=1;points=[];perimeter=orthogonalPerimeter;outlineConnect=0;targetShapes=umlLifeline;portConstraint=eastwest;newEdgeStyle={&quot;edgeStyle&quot;:&quot;elbowEdgeStyle&quot;,&quot;elbow&quot;:&quot;vertical&quot;,&quot;curved&quot;:0,&quot;rounded&quot;:0};" vertex="1" parent="1">
          <mxGeometry x="415" y="840" width="10" height="140" as="geometry" />
        </mxCell>
        <mxCell id="CE3I49nO1LeiMkkwxZkM-24" value="Naciska guzik &quot;Edytuj wizytę&quot;" style="html=1;verticalAlign=bottom;endArrow=block;edgeStyle=elbowEdgeStyle;elbow=vertical;curved=0;rounded=0;" edge="1" parent="1">
          <mxGeometry x="0.0354" y="10" relative="1" as="geometry">
            <mxPoint x="60" y="830" as="sourcePoint" />
            <mxPoint x="215" y="830" as="targetPoint" />
            <Array as="points">
              <mxPoint x="150" y="830" />
            </Array>
            <mxPoint as="offset" />
          </mxGeometry>
        </mxCell>
        <mxCell id="CE3I49nO1LeiMkkwxZkM-25" value="Wyświetla formularz do umówienia wizyt" style="html=1;verticalAlign=bottom;endArrow=block;edgeStyle=elbowEdgeStyle;elbow=vertical;curved=0;rounded=0;" edge="1" parent="1" target="CE3I49nO1LeiMkkwxZkM-23">
          <mxGeometry relative="1" as="geometry">
            <mxPoint x="220" y="840" as="sourcePoint" />
            <Array as="points">
              <mxPoint x="328" y="840" />
            </Array>
          </mxGeometry>
        </mxCell>
        <mxCell id="CE3I49nO1LeiMkkwxZkM-26" value="Wyświetla szczegóły o wizycie" style="html=1;verticalAlign=bottom;endArrow=open;dashed=1;endSize=8;edgeStyle=elbowEdgeStyle;elbow=vertical;curved=0;rounded=0;" edge="1" parent="1">
          <mxGeometry x="-0.3333" relative="1" as="geometry">
            <mxPoint x="220" y="1000" as="targetPoint" />
            <mxPoint x="420" y="990" as="sourcePoint" />
            <Array as="points">
              <mxPoint x="340" y="1000" />
              <mxPoint x="350" y="980" />
              <mxPoint x="320" y="920" />
            </Array>
            <mxPoint as="offset" />
          </mxGeometry>
        </mxCell>
        <mxCell id="CE3I49nO1LeiMkkwxZkM-27" value="Zwraca dostępne daty oraz lekarzy" style="html=1;verticalAlign=bottom;endArrow=open;dashed=1;endSize=8;edgeStyle=elbowEdgeStyle;elbow=vertical;curved=0;rounded=0;" edge="1" parent="1" source="CE3I49nO1LeiMkkwxZkM-22">
          <mxGeometry relative="1" as="geometry">
            <mxPoint x="420" y="930" as="targetPoint" />
            <Array as="points">
              <mxPoint x="490" y="930" />
              <mxPoint x="470" y="920" />
            </Array>
          </mxGeometry>
        </mxCell>
        <mxCell id="CE3I49nO1LeiMkkwxZkM-28" value="Wysyła żądanie o dostępnych &lt;br&gt;lekarzach i datach" style="html=1;verticalAlign=bottom;endArrow=block;edgeStyle=elbowEdgeStyle;elbow=vertical;curved=0;rounded=0;" edge="1" parent="1" target="CE3I49nO1LeiMkkwxZkM-22">
          <mxGeometry relative="1" as="geometry">
            <mxPoint x="420" y="850" as="sourcePoint" />
            <Array as="points">
              <mxPoint x="480" y="850" />
            </Array>
          </mxGeometry>
        </mxCell>
        <mxCell id="CE3I49nO1LeiMkkwxZkM-29" value="Wybiera datę oraz lekarza" style="html=1;verticalAlign=bottom;endArrow=block;edgeStyle=elbowEdgeStyle;elbow=vertical;curved=0;rounded=0;" edge="1" parent="1">
          <mxGeometry width="80" relative="1" as="geometry">
            <mxPoint x="60" y="970" as="sourcePoint" />
            <mxPoint x="420" y="960" as="targetPoint" />
            <Array as="points">
              <mxPoint x="140" y="960" />
            </Array>
          </mxGeometry>
        </mxCell>
        <mxCell id="CE3I49nO1LeiMkkwxZkM-30" value="Potwierdza wizytę" style="html=1;verticalAlign=bottom;endArrow=block;edgeStyle=elbowEdgeStyle;elbow=vertical;curved=0;rounded=0;" edge="1" parent="1">
          <mxGeometry width="80" relative="1" as="geometry">
            <mxPoint x="790" y="970" as="sourcePoint" />
            <mxPoint x="420" y="970" as="targetPoint" />
            <Array as="points">
              <mxPoint x="470" y="970" />
            </Array>
          </mxGeometry>
        </mxCell>
        <mxCell id="CE3I49nO1LeiMkkwxZkM-31" value="Wizyta została zmieniona" style="html=1;verticalAlign=bottom;endArrow=open;dashed=1;endSize=8;edgeStyle=elbowEdgeStyle;elbow=vertical;curved=0;rounded=0;" edge="1" parent="1">
          <mxGeometry relative="1" as="geometry">
            <mxPoint x="60" y="1020" as="targetPoint" />
            <mxPoint x="215" y="1020" as="sourcePoint" />
            <Array as="points">
              <mxPoint x="160" y="1020" />
              <mxPoint x="170" y="1020" />
              <mxPoint x="143" y="900" />
            </Array>
          </mxGeometry>
        </mxCell>
        <mxCell id="CE3I49nO1LeiMkkwxZkM-34" value="Pacjent" style="text;html=1;strokeColor=none;fillColor=none;align=center;verticalAlign=middle;whiteSpace=wrap;rounded=0;" vertex="1" parent="1">
          <mxGeometry x="30" y="450" width="60" height="30" as="geometry" />
        </mxCell>
        <mxCell id="CE3I49nO1LeiMkkwxZkM-35" value="Pracownik administracyjny" style="text;html=1;strokeColor=none;fillColor=none;align=center;verticalAlign=middle;whiteSpace=wrap;rounded=0;" vertex="1" parent="1">
          <mxGeometry x="760" y="450" width="60" height="30" as="geometry" />
        </mxCell>
        <mxCell id="CE3I49nO1LeiMkkwxZkM-111" value="GUI" style="shape=umlLifeline;perimeter=lifelinePerimeter;whiteSpace=wrap;html=1;container=1;dropTarget=0;collapsible=0;recursiveResize=0;outlineConnect=0;portConstraint=eastwest;newEdgeStyle={&quot;edgeStyle&quot;:&quot;elbowEdgeStyle&quot;,&quot;elbow&quot;:&quot;vertical&quot;,&quot;curved&quot;:0,&quot;rounded&quot;:0};participant=umlControl;" vertex="1" parent="1">
          <mxGeometry x="220" y="1370" width="40" height="620" as="geometry" />
        </mxCell>
        <mxCell id="CE3I49nO1LeiMkkwxZkM-112" value="" style="html=1;points=[];perimeter=orthogonalPerimeter;outlineConnect=0;targetShapes=umlLifeline;portConstraint=eastwest;newEdgeStyle={&quot;edgeStyle&quot;:&quot;elbowEdgeStyle&quot;,&quot;elbow&quot;:&quot;vertical&quot;,&quot;curved&quot;:0,&quot;rounded&quot;:0};" vertex="1" parent="CE3I49nO1LeiMkkwxZkM-111">
          <mxGeometry x="15" y="90" width="10" height="200" as="geometry" />
        </mxCell>
        <mxCell id="CE3I49nO1LeiMkkwxZkM-113" value="BD" style="shape=umlLifeline;perimeter=lifelinePerimeter;whiteSpace=wrap;html=1;container=1;dropTarget=0;collapsible=0;recursiveResize=0;outlineConnect=0;portConstraint=eastwest;newEdgeStyle={&quot;edgeStyle&quot;:&quot;elbowEdgeStyle&quot;,&quot;elbow&quot;:&quot;vertical&quot;,&quot;curved&quot;:0,&quot;rounded&quot;:0};participant=umlBoundary;" vertex="1" parent="1">
          <mxGeometry x="660" y="1370" width="50" height="620" as="geometry" />
        </mxCell>
        <mxCell id="CE3I49nO1LeiMkkwxZkM-114" value="" style="html=1;points=[];perimeter=orthogonalPerimeter;outlineConnect=0;targetShapes=umlLifeline;portConstraint=eastwest;newEdgeStyle={&quot;edgeStyle&quot;:&quot;elbowEdgeStyle&quot;,&quot;elbow&quot;:&quot;vertical&quot;,&quot;curved&quot;:0,&quot;rounded&quot;:0};" vertex="1" parent="CE3I49nO1LeiMkkwxZkM-113">
          <mxGeometry x="20" y="110" width="10" height="80" as="geometry" />
        </mxCell>
        <mxCell id="CE3I49nO1LeiMkkwxZkM-128" value="" style="html=1;points=[];perimeter=orthogonalPerimeter;outlineConnect=0;targetShapes=umlLifeline;portConstraint=eastwest;newEdgeStyle={&quot;edgeStyle&quot;:&quot;elbowEdgeStyle&quot;,&quot;elbow&quot;:&quot;vertical&quot;,&quot;curved&quot;:0,&quot;rounded&quot;:0};" vertex="1" parent="CE3I49nO1LeiMkkwxZkM-113">
          <mxGeometry x="20" y="410" width="10" height="80" as="geometry" />
        </mxCell>
        <mxCell id="CE3I49nO1LeiMkkwxZkM-129" value="" style="html=1;points=[];perimeter=orthogonalPerimeter;outlineConnect=0;targetShapes=umlLifeline;portConstraint=eastwest;newEdgeStyle={&quot;edgeStyle&quot;:&quot;elbowEdgeStyle&quot;,&quot;elbow&quot;:&quot;vertical&quot;,&quot;curved&quot;:0,&quot;rounded&quot;:0};" vertex="1" parent="CE3I49nO1LeiMkkwxZkM-113">
          <mxGeometry x="-225" y="400" width="10" height="140" as="geometry" />
        </mxCell>
        <mxCell id="CE3I49nO1LeiMkkwxZkM-130" value="Naciska guzik &quot;Skieruj na badania&quot;" style="html=1;verticalAlign=bottom;endArrow=block;edgeStyle=elbowEdgeStyle;elbow=vertical;curved=0;rounded=0;" edge="1" parent="CE3I49nO1LeiMkkwxZkM-113">
          <mxGeometry x="0.0354" y="10" relative="1" as="geometry">
            <mxPoint x="-580" y="390" as="sourcePoint" />
            <mxPoint x="-425" y="390" as="targetPoint" />
            <Array as="points">
              <mxPoint x="-490" y="390" />
            </Array>
            <mxPoint as="offset" />
          </mxGeometry>
        </mxCell>
        <mxCell id="CE3I49nO1LeiMkkwxZkM-131" value="Wyświetla formularz do skierowań" style="html=1;verticalAlign=bottom;endArrow=block;edgeStyle=elbowEdgeStyle;elbow=vertical;curved=0;rounded=0;" edge="1" parent="CE3I49nO1LeiMkkwxZkM-113" target="CE3I49nO1LeiMkkwxZkM-129">
          <mxGeometry relative="1" as="geometry">
            <mxPoint x="-420" y="400" as="sourcePoint" />
            <Array as="points">
              <mxPoint x="-312" y="400" />
            </Array>
          </mxGeometry>
        </mxCell>
        <mxCell id="CE3I49nO1LeiMkkwxZkM-132" value="Wyświetla szczegóły o wizycie" style="html=1;verticalAlign=bottom;endArrow=open;dashed=1;endSize=8;edgeStyle=elbowEdgeStyle;elbow=vertical;curved=0;rounded=0;" edge="1" parent="CE3I49nO1LeiMkkwxZkM-113">
          <mxGeometry x="-0.3333" relative="1" as="geometry">
            <mxPoint x="-420" y="560" as="targetPoint" />
            <mxPoint x="-220" y="550" as="sourcePoint" />
            <Array as="points">
              <mxPoint x="-300" y="560" />
              <mxPoint x="-290" y="540" />
              <mxPoint x="-320" y="480" />
            </Array>
            <mxPoint as="offset" />
          </mxGeometry>
        </mxCell>
        <mxCell id="CE3I49nO1LeiMkkwxZkM-133" value="Zwraca dostępne terminy" style="html=1;verticalAlign=bottom;endArrow=open;dashed=1;endSize=8;edgeStyle=elbowEdgeStyle;elbow=vertical;curved=0;rounded=0;" edge="1" parent="CE3I49nO1LeiMkkwxZkM-113" source="CE3I49nO1LeiMkkwxZkM-128">
          <mxGeometry relative="1" as="geometry">
            <mxPoint x="-220" y="490" as="targetPoint" />
            <Array as="points">
              <mxPoint x="-150" y="490" />
              <mxPoint x="-170" y="480" />
            </Array>
          </mxGeometry>
        </mxCell>
        <mxCell id="CE3I49nO1LeiMkkwxZkM-134" value="Wysyła żądanie o dostępnych &lt;br&gt;terminach badań danego typu" style="html=1;verticalAlign=bottom;endArrow=block;edgeStyle=elbowEdgeStyle;elbow=vertical;curved=0;rounded=0;" edge="1" parent="CE3I49nO1LeiMkkwxZkM-113" target="CE3I49nO1LeiMkkwxZkM-128">
          <mxGeometry relative="1" as="geometry">
            <mxPoint x="-220" y="430" as="sourcePoint" />
            <Array as="points">
              <mxPoint x="-20" y="430" />
              <mxPoint x="-160" y="430" />
            </Array>
            <mxPoint as="offset" />
          </mxGeometry>
        </mxCell>
        <mxCell id="CE3I49nO1LeiMkkwxZkM-135" value="Wybiera datę" style="html=1;verticalAlign=bottom;endArrow=block;edgeStyle=elbowEdgeStyle;elbow=vertical;curved=0;rounded=0;" edge="1" parent="CE3I49nO1LeiMkkwxZkM-113">
          <mxGeometry width="80" relative="1" as="geometry">
            <mxPoint x="-580" y="530" as="sourcePoint" />
            <mxPoint x="-220" y="520" as="targetPoint" />
            <Array as="points">
              <mxPoint x="-500" y="520" />
            </Array>
          </mxGeometry>
        </mxCell>
        <mxCell id="CE3I49nO1LeiMkkwxZkM-137" value="Skierowanie zostało wystawione" style="html=1;verticalAlign=bottom;endArrow=open;dashed=1;endSize=8;edgeStyle=elbowEdgeStyle;elbow=vertical;curved=0;rounded=0;" edge="1" parent="CE3I49nO1LeiMkkwxZkM-113">
          <mxGeometry relative="1" as="geometry">
            <mxPoint x="-580" y="580" as="targetPoint" />
            <mxPoint x="-425" y="580" as="sourcePoint" />
            <Array as="points">
              <mxPoint x="-480" y="580" />
              <mxPoint x="-470" y="580" />
              <mxPoint x="-497" y="460" />
            </Array>
          </mxGeometry>
        </mxCell>
        <mxCell id="CE3I49nO1LeiMkkwxZkM-140" value="Wybiera typ badania" style="html=1;verticalAlign=bottom;endArrow=block;edgeStyle=elbowEdgeStyle;elbow=vertical;curved=0;rounded=0;" edge="1" parent="CE3I49nO1LeiMkkwxZkM-113">
          <mxGeometry width="80" relative="1" as="geometry">
            <mxPoint x="-580.5" y="420" as="sourcePoint" />
            <mxPoint x="-220.5" y="420" as="targetPoint" />
            <Array as="points">
              <mxPoint x="-350" y="420" />
            </Array>
          </mxGeometry>
        </mxCell>
        <mxCell id="CE3I49nO1LeiMkkwxZkM-115" value="" style="shape=umlLifeline;perimeter=lifelinePerimeter;whiteSpace=wrap;html=1;container=1;dropTarget=0;collapsible=0;recursiveResize=0;outlineConnect=0;portConstraint=eastwest;newEdgeStyle={&quot;edgeStyle&quot;:&quot;elbowEdgeStyle&quot;,&quot;elbow&quot;:&quot;vertical&quot;,&quot;curved&quot;:0,&quot;rounded&quot;:0};participant=umlActor;" vertex="1" parent="1">
          <mxGeometry x="70" y="1370" width="20" height="620" as="geometry" />
        </mxCell>
        <mxCell id="CE3I49nO1LeiMkkwxZkM-117" value="System" style="shape=umlLifeline;perimeter=lifelinePerimeter;whiteSpace=wrap;html=1;container=1;dropTarget=0;collapsible=0;recursiveResize=0;outlineConnect=0;portConstraint=eastwest;newEdgeStyle={&quot;edgeStyle&quot;:&quot;elbowEdgeStyle&quot;,&quot;elbow&quot;:&quot;vertical&quot;,&quot;curved&quot;:0,&quot;rounded&quot;:0};participant=umlControl;" vertex="1" parent="1">
          <mxGeometry x="420" y="1370" width="40" height="620" as="geometry" />
        </mxCell>
        <mxCell id="CE3I49nO1LeiMkkwxZkM-118" value="" style="html=1;points=[];perimeter=orthogonalPerimeter;outlineConnect=0;targetShapes=umlLifeline;portConstraint=eastwest;newEdgeStyle={&quot;edgeStyle&quot;:&quot;elbowEdgeStyle&quot;,&quot;elbow&quot;:&quot;vertical&quot;,&quot;curved&quot;:0,&quot;rounded&quot;:0};" vertex="1" parent="CE3I49nO1LeiMkkwxZkM-117">
          <mxGeometry x="15" y="100" width="10" height="140" as="geometry" />
        </mxCell>
        <mxCell id="CE3I49nO1LeiMkkwxZkM-119" value="Naciska guzik &quot;Wypisz receptę&quot;" style="html=1;verticalAlign=bottom;endArrow=block;edgeStyle=elbowEdgeStyle;elbow=vertical;curved=0;rounded=0;" edge="1" parent="1" source="CE3I49nO1LeiMkkwxZkM-115" target="CE3I49nO1LeiMkkwxZkM-112">
          <mxGeometry x="0.0354" y="10" relative="1" as="geometry">
            <mxPoint x="165" y="1460" as="sourcePoint" />
            <Array as="points">
              <mxPoint x="170" y="1460" />
            </Array>
            <mxPoint as="offset" />
          </mxGeometry>
        </mxCell>
        <mxCell id="CE3I49nO1LeiMkkwxZkM-120" value="Recepta została wystawiona" style="html=1;verticalAlign=bottom;endArrow=open;dashed=1;endSize=8;edgeStyle=elbowEdgeStyle;elbow=vertical;curved=0;rounded=0;" edge="1" parent="1" source="CE3I49nO1LeiMkkwxZkM-112" target="CE3I49nO1LeiMkkwxZkM-115">
          <mxGeometry relative="1" as="geometry">
            <mxPoint x="165" y="1535" as="targetPoint" />
            <Array as="points">
              <mxPoint x="180" y="1660" />
              <mxPoint x="190" y="1660" />
              <mxPoint x="163" y="1540" />
            </Array>
          </mxGeometry>
        </mxCell>
        <mxCell id="CE3I49nO1LeiMkkwxZkM-121" value="Wyświetla formularz do wystawiania recept" style="html=1;verticalAlign=bottom;endArrow=block;edgeStyle=elbowEdgeStyle;elbow=vertical;curved=0;rounded=0;" edge="1" parent="1" source="CE3I49nO1LeiMkkwxZkM-111" target="CE3I49nO1LeiMkkwxZkM-118">
          <mxGeometry relative="1" as="geometry">
            <mxPoint x="365" y="1470" as="sourcePoint" />
            <Array as="points">
              <mxPoint x="348" y="1470" />
            </Array>
          </mxGeometry>
        </mxCell>
        <mxCell id="CE3I49nO1LeiMkkwxZkM-122" value="Wyświetla szczegóły o recepcie" style="html=1;verticalAlign=bottom;endArrow=open;dashed=1;endSize=8;edgeStyle=elbowEdgeStyle;elbow=vertical;curved=0;rounded=0;" edge="1" parent="1" target="CE3I49nO1LeiMkkwxZkM-111">
          <mxGeometry relative="1" as="geometry">
            <mxPoint x="365" y="1545" as="targetPoint" />
            <mxPoint x="440" y="1620" as="sourcePoint" />
            <Array as="points">
              <mxPoint x="360" y="1630" />
              <mxPoint x="370" y="1610" />
              <mxPoint x="340" y="1550" />
            </Array>
          </mxGeometry>
        </mxCell>
        <mxCell id="CE3I49nO1LeiMkkwxZkM-123" value="Zwraca dostępne leki" style="html=1;verticalAlign=bottom;endArrow=open;dashed=1;endSize=8;edgeStyle=elbowEdgeStyle;elbow=vertical;curved=0;rounded=0;" edge="1" parent="1" source="CE3I49nO1LeiMkkwxZkM-114" target="CE3I49nO1LeiMkkwxZkM-117">
          <mxGeometry relative="1" as="geometry">
            <mxPoint x="480" y="1545" as="targetPoint" />
            <Array as="points">
              <mxPoint x="510" y="1560" />
              <mxPoint x="490" y="1550" />
            </Array>
          </mxGeometry>
        </mxCell>
        <mxCell id="CE3I49nO1LeiMkkwxZkM-124" value="Wysyła żądanie o dostępnych &lt;br&gt;lekach" style="html=1;verticalAlign=bottom;endArrow=block;edgeStyle=elbowEdgeStyle;elbow=vertical;curved=0;rounded=0;" edge="1" parent="1" source="CE3I49nO1LeiMkkwxZkM-117" target="CE3I49nO1LeiMkkwxZkM-114">
          <mxGeometry relative="1" as="geometry">
            <mxPoint x="480" y="1470" as="sourcePoint" />
            <Array as="points">
              <mxPoint x="500" y="1480" />
            </Array>
          </mxGeometry>
        </mxCell>
        <mxCell id="CE3I49nO1LeiMkkwxZkM-125" value="Wybiera dane które wpisze do recepty" style="html=1;verticalAlign=bottom;endArrow=block;edgeStyle=elbowEdgeStyle;elbow=vertical;curved=0;rounded=0;" edge="1" parent="1" target="CE3I49nO1LeiMkkwxZkM-117">
          <mxGeometry width="80" relative="1" as="geometry">
            <mxPoint x="80" y="1600" as="sourcePoint" />
            <mxPoint x="160" y="1600" as="targetPoint" />
            <Array as="points">
              <mxPoint x="160" y="1590" />
            </Array>
          </mxGeometry>
        </mxCell>
        <mxCell id="CE3I49nO1LeiMkkwxZkM-138" value="Lekarz" style="text;html=1;strokeColor=none;fillColor=none;align=center;verticalAlign=middle;whiteSpace=wrap;rounded=0;" vertex="1" parent="1">
          <mxGeometry x="50" y="1340" width="60" height="30" as="geometry" />
        </mxCell>
        <mxCell id="CE3I49nO1LeiMkkwxZkM-141" value="opt" style="shape=umlFrame;whiteSpace=wrap;html=1;pointerEvents=0;" vertex="1" parent="1">
          <mxGeometry x="-20" y="1430" width="860" height="250" as="geometry" />
        </mxCell>
        <mxCell id="CE3I49nO1LeiMkkwxZkM-142" value="opt" style="shape=umlFrame;whiteSpace=wrap;html=1;pointerEvents=0;" vertex="1" parent="1">
          <mxGeometry x="-20" y="1720" width="860" height="250" as="geometry" />
        </mxCell>
      </root>
    </mxGraphModel>
  </diagram>
</mxfile>
